<?xml version="1.0" encoding="UTF-8" standalone="no"?>
<!DOCTYPE svg PUBLIC "-//W3C//DTD SVG 1.1//EN" "http://www.w3.org/Graphics/SVG/1.1/DTD/svg11.dtd">
<svg width="100%" height="100%" viewBox="0 0 138 138" version="1.1" xmlns="http://www.w3.org/2000/svg" xmlns:xlink="http://www.w3.org/1999/xlink" xml:space="preserve" xmlns:serif="http://www.serif.com/" style="fill-rule:evenodd;clip-rule:evenodd;stroke-linejoin:round;stroke-miterlimit:1.41421;">
    <g transform="matrix(1,0,0,1,-3066.42,-3947)">
        <g transform="matrix(1.86715,0,0,1,2127.06,3763.62)">
            <g transform="matrix(1,0,0,1,0,-20.7238)">
                <g transform="matrix(3.17268e-17,0.967444,0.518138,-5.92388e-17,475.753,-254.868)">
                    <path d="M557.368,171.34L545.642,132.927L533.916,171.34L557.368,171.34Z" style="fill:white;"/>
                </g>
                <g transform="matrix(-9.51804e-17,-0.967444,-0.518138,1.77717e-16,604.247,800.887)">
                    <path d="M545.642,132.927L533.916,171.34L557.368,171.34L545.642,132.927Z" style="fill:white;"/>
                </g>
                <g transform="matrix(0.518138,0,0,-0.967444,257.282,392.968)">
                    <path d="M545.642,132.927L533.916,171.34L557.368,171.34L545.642,132.927Z" style="fill:white;"/>
                </g>
                <g transform="matrix(-0.518138,1.18478e-16,6.34536e-17,0.967444,822.718,153.051)">
                    <path d="M533.916,171.34L557.368,171.34L545.642,132.927L533.916,171.34Z" style="fill:white;"/>
                </g>
                <g transform="matrix(0.535574,0,0,1,238.698,76.6681)">
                    <path d="M563.023,127.437L563.467,127.441L563.911,127.448L564.355,127.458L564.797,127.471L565.239,127.486L565.68,127.505L566.121,127.526L566.561,127.549L567,127.576L567.438,127.605L567.876,127.637L568.312,127.672L568.749,127.709L569.184,127.749L569.618,127.792L570.052,127.837L570.485,127.885L570.917,127.936L571.348,127.99L571.779,128.046L572.208,128.105L572.637,128.166L573.065,128.23L573.492,128.297L573.918,128.366L574.344,128.438L574.768,128.513L575.192,128.59L575.614,128.67L576.036,128.752L576.457,128.837L576.877,128.924L577.296,129.014L577.714,129.107L578.131,129.202L578.547,129.299L578.962,129.399L579.376,129.502L579.789,129.607L580.202,129.714L580.613,129.824L581.023,129.937L581.432,130.052L581.84,130.169L582.247,130.289L582.653,130.411L583.058,130.536L583.462,130.663L583.865,130.792L584.267,130.924L584.668,131.059L585.067,131.195L585.466,131.335L585.863,131.476L586.259,131.62L586.654,131.766L587.048,131.915L587.441,132.065L587.833,132.219L588.223,132.374L588.613,132.532L589.001,132.692L589.388,132.854L589.774,133.019L590.158,133.186L590.541,133.355L590.924,133.527L591.304,133.7L591.684,133.876L592.063,134.055L592.44,134.235L592.816,134.418L593.19,134.602L593.563,134.79L593.936,134.979L594.306,135.17L594.676,135.364L595.044,135.56L595.411,135.757L595.776,135.958L596.14,136.16L596.503,136.364L596.864,136.571L597.224,136.779L597.583,136.99L597.94,137.203L598.296,137.417L598.651,137.634L599.004,137.853L599.355,138.074L599.705,138.298L600.054,138.523L600.402,138.75L600.748,138.979L601.092,139.211L601.435,139.444L601.776,139.679L602.116,139.916L602.455,140.156L602.792,140.397L603.127,140.64L603.461,140.885L603.794,141.132L604.125,141.381L604.454,141.632L604.782,141.885L605.108,142.14L605.433,142.397L605.756,142.656L606.077,142.916L606.397,143.179L606.715,143.443L607.032,143.709L607.347,143.977L607.661,144.247L607.972,144.519L608.283,144.793L608.591,145.068L608.898,145.345L609.203,145.624L609.506,145.905L609.808,146.188L610.108,146.472L610.407,146.758L610.703,147.046L610.998,147.336L611.291,147.627L611.583,147.921L611.873,148.215L612.161,148.512L612.447,148.81L612.731,149.111L613.014,149.412L613.295,149.716L613.574,150.021L613.851,150.328L614.126,150.636L614.4,150.946L614.672,151.258L614.941,151.572L615.21,151.887L615.476,152.203L615.74,152.522L616.002,152.842L616.263,153.163L616.522,153.486L616.778,153.811L617.033,154.137L617.286,154.465L617.537,154.794L617.786,155.125L618.034,155.457L618.279,155.791L618.522,156.127L618.763,156.464L619.002,156.802L619.24,157.142L619.475,157.484L619.708,157.827L619.94,158.171L620.169,158.517L620.396,158.864L620.621,159.213L620.844,159.563L621.065,159.915L621.284,160.268L621.501,160.623L621.716,160.979L621.929,161.336L622.14,161.694L622.348,162.055L622.555,162.416L622.759,162.779L622.961,163.143L623.161,163.508L623.359,163.875L623.555,164.243L623.749,164.613L623.94,164.983L624.129,165.355L624.316,165.729L624.501,166.103L624.684,166.479L624.864,166.856L625.042,167.235L625.218,167.614L625.392,167.995L625.564,168.377L625.733,168.761L625.9,169.145L626.064,169.531L626.227,169.918L626.387,170.306L626.545,170.695L626.7,171.086L626.853,171.478L627.004,171.87L627.153,172.264L627.299,172.66L627.443,173.056L627.584,173.453L627.723,173.852L627.86,174.251L627.994,174.652L628.126,175.054L628.256,175.457L628.383,175.86L628.508,176.265L628.63,176.671L628.75,177.079L628.867,177.487L628.982,177.896L629.095,178.306L629.205,178.717L629.312,179.129L629.417,179.543L629.52,179.957L629.62,180.372L629.717,180.788L629.812,181.205L629.905,181.623L629.995,182.042L630.082,182.462L630.167,182.883L630.249,183.304L630.329,183.727L630.406,184.151L630.48,184.575L630.552,185L630.622,185.427L630.688,185.854L630.753,186.282L630.814,186.71L630.873,187.14L630.929,187.57L630.982,188.002L631.033,188.434L631.081,188.867L631.127,189.3L631.17,189.735L631.21,190.17L631.247,190.606L631.282,191.043L631.314,191.481L631.343,191.919L631.37,192.358L631.393,192.798L631.414,193.238L631.432,193.68L631.448,194.121L631.46,194.564L631.47,195.007L631.477,195.451L631.482,195.896L631.483,196.341L631.482,196.787L631.477,197.231L631.47,197.675L631.46,198.119L631.448,198.561L631.432,199.003L631.414,199.445L631.393,199.885L631.37,200.325L631.343,200.764L631.314,201.202L631.282,201.64L631.247,202.077L631.21,202.513L631.17,202.948L631.127,203.382L631.081,203.816L631.033,204.249L630.982,204.681L630.929,205.112L630.873,205.543L630.814,205.973L630.753,206.401L630.688,206.829L630.622,207.256L630.552,207.683L630.48,208.108L630.406,208.532L630.329,208.956L630.249,209.378L630.167,209.8L630.082,210.221L629.995,210.641L629.905,211.06L629.812,211.478L629.717,211.895L629.62,212.311L629.52,212.726L629.417,213.14L629.312,213.554L629.205,213.966L629.095,214.377L628.982,214.787L628.867,215.196L628.75,215.604L628.63,216.011L628.508,216.417L628.383,216.822L628.256,217.226L628.126,217.629L627.994,218.031L627.86,218.432L627.723,218.831L627.584,219.23L627.443,219.627L627.299,220.023L627.153,220.418L627.004,220.812L626.853,221.205L626.7,221.597L626.545,221.987L626.387,222.377L626.227,222.765L626.064,223.152L625.9,223.538L625.733,223.922L625.564,224.306L625.392,224.688L625.218,225.069L625.042,225.448L624.864,225.827L624.684,226.204L624.501,226.58L624.316,226.954L624.129,227.328L623.94,227.7L623.749,228.07L623.555,228.44L623.359,228.808L623.161,229.175L622.961,229.54L622.759,229.904L622.555,230.267L622.348,230.628L622.14,230.988L621.929,231.347L621.716,231.704L621.501,232.06L621.284,232.415L621.065,232.768L620.844,233.119L620.621,233.47L620.396,233.818L620.169,234.166L619.94,234.512L619.708,234.856L619.475,235.199L619.24,235.541L619.002,235.881L618.763,236.219L618.522,236.556L618.279,236.891L618.034,237.225L617.786,237.558L617.537,237.889L617.286,238.218L617.033,238.546L616.778,238.872L616.522,239.197L616.263,239.52L616.002,239.841L615.74,240.161L615.476,240.48L615.21,240.796L614.941,241.111L614.672,241.425L614.4,241.737L614.126,242.047L613.851,242.355L613.574,242.662L613.295,242.967L613.014,243.271L612.731,243.572L612.447,243.872L612.161,244.171L611.873,244.467L611.583,244.762L611.291,245.056L610.998,245.347L610.703,245.637L610.407,245.925L610.108,246.211L609.808,246.495L609.506,246.778L609.203,247.059L608.898,247.338L608.591,247.615L608.283,247.89L607.972,248.164L607.661,248.436L607.347,248.706L607.032,248.974L606.715,249.24L606.397,249.504L606.077,249.767L605.756,250.027L605.433,250.286L605.108,250.543L604.782,250.798L604.454,251.05L604.125,251.301L603.794,251.551L603.461,251.798L603.127,252.043L602.792,252.286L602.455,252.527L602.116,252.767L601.776,253.004L601.435,253.239L601.092,253.472L600.748,253.704L600.402,253.933L600.054,254.16L599.705,254.385L599.355,254.608L599.004,254.83L598.651,255.049L598.296,255.265L597.94,255.48L597.583,255.693L597.224,255.904L596.864,256.112L596.503,256.319L596.14,256.523L595.776,256.725L595.411,256.925L595.044,257.123L594.676,257.319L594.306,257.513L593.936,257.704L593.563,257.893L593.19,258.08L592.816,258.265L592.44,258.448L592.063,258.628L591.684,258.807L591.304,258.983L590.924,259.156L590.541,259.328L590.158,259.497L589.774,259.664L589.388,259.829L589.001,259.991L588.613,260.151L588.223,260.309L587.833,260.464L587.441,260.618L587.048,260.768L586.654,260.917L586.259,261.063L585.863,261.207L585.466,261.348L585.067,261.487L584.668,261.624L584.267,261.759L583.865,261.89L583.462,262.02L583.058,262.147L582.653,262.272L582.247,262.394L581.84,262.514L581.432,262.631L581.023,262.746L580.613,262.859L580.202,262.969L579.789,263.076L579.376,263.181L578.962,263.284L578.547,263.384L578.131,263.481L577.714,263.576L577.296,263.669L576.877,263.759L576.457,263.846L576.036,263.931L575.614,264.013L575.192,264.093L574.768,264.17L574.344,264.245L573.918,264.317L573.492,264.386L573.065,264.453L572.637,264.517L572.208,264.578L571.779,264.637L571.348,264.693L570.917,264.747L570.485,264.797L570.052,264.846L569.618,264.891L569.184,264.934L568.749,264.974L568.312,265.011L567.876,265.046L567.438,265.078L567,265.107L566.561,265.134L566.121,265.157L565.68,265.178L565.239,265.197L564.797,265.212L564.355,265.225L563.911,265.234L563.467,265.241L563.023,265.246L562.577,265.247L562.132,265.246L561.687,265.241L561.243,265.234L560.8,265.225L560.357,265.212L559.915,265.197L559.474,265.178L559.034,265.157L558.594,265.134L558.155,265.107L557.717,265.078L557.279,265.046L556.842,265.011L556.406,264.974L555.971,264.934L555.536,264.891L555.103,264.846L554.67,264.797L554.238,264.747L553.806,264.693L553.376,264.637L552.946,264.578L552.517,264.517L552.09,264.453L551.662,264.386L551.236,264.317L550.811,264.245L550.386,264.17L549.963,264.093L549.54,264.013L549.119,263.931L548.698,263.846L548.278,263.759L547.859,263.669L547.441,263.576L547.024,263.481L546.608,263.384L546.193,263.284L545.778,263.181L545.365,263.076L544.953,262.969L544.542,262.859L544.132,262.746L543.723,262.631L543.314,262.514L542.907,262.394L542.501,262.272L542.096,262.147L541.692,262.02L541.29,261.89L540.888,261.759L540.487,261.624L540.088,261.487L539.689,261.348L539.292,261.207L538.895,261.063L538.5,260.917L538.106,260.768L537.714,260.618L537.322,260.464L536.931,260.309L536.542,260.151L536.154,259.991L535.767,259.829L535.381,259.664L534.997,259.497L534.613,259.328L534.231,259.156L533.85,258.983L533.471,258.807L533.092,258.628L532.715,258.448L532.339,258.265L531.964,258.08L531.591,257.893L531.219,257.704L530.848,257.513L530.479,257.319L530.111,257.123L529.744,256.925L529.379,256.725L529.015,256.523L528.652,256.319L528.29,256.112L527.93,255.904L527.572,255.693L527.214,255.48L526.859,255.265L526.504,255.049L526.151,254.83L525.799,254.608L525.449,254.385L525.1,254.16L524.753,253.933L524.407,253.704L524.063,253.472L523.72,253.239L523.378,253.004L523.038,252.767L522.7,252.527L522.363,252.286L522.027,252.043L521.693,251.798L521.361,251.551L521.03,251.301L520.701,251.05L520.373,250.798L520.047,250.543L519.722,250.286L519.399,250.027L519.077,249.767L518.757,249.504L518.439,249.24L518.123,248.974L517.807,248.706L517.494,248.436L517.182,248.164L516.872,247.89L516.564,247.615L516.257,247.338L515.952,247.059L515.648,246.778L515.346,246.495L515.046,246.211L514.748,245.925L514.451,245.637L514.156,245.347L513.863,245.056L513.572,244.762L513.282,244.467L512.994,244.171L512.708,243.872L512.423,243.572L512.141,243.271L511.86,242.967L511.581,242.662L511.304,242.355L511.028,242.047L510.755,241.737L510.483,241.425L510.213,241.111L509.945,240.796L509.679,240.48L509.415,240.161L509.152,239.841L508.892,239.52L508.633,239.197L508.376,238.872L508.121,238.546L507.868,238.218L507.617,237.889L507.368,237.558L507.121,237.225L506.876,236.891L506.633,236.556L506.391,236.219L506.152,235.881L505.915,235.541L505.68,235.199L505.446,234.856L505.215,234.512L504.986,234.166L504.759,233.818L504.533,233.47L504.31,233.119L504.089,232.768L503.87,232.415L503.653,232.06L503.438,231.704L503.226,231.347L503.015,230.988L502.806,230.628L502.6,230.267L502.396,229.904L502.193,229.54L501.993,229.175L501.795,228.808L501.6,228.44L501.406,228.07L501.215,227.7L501.025,227.328L500.838,226.954L500.653,226.58L500.471,226.204L500.29,225.827L500.112,225.448L499.936,225.069L499.762,224.688L499.591,224.306L499.422,223.922L499.255,223.538L499.09,223.152L498.928,222.765L498.768,222.377L498.61,221.987L498.454,221.597L498.301,221.205L498.15,220.812L498.002,220.418L497.856,220.023L497.712,219.627L497.57,219.23L497.431,218.831L497.295,218.432L497.16,218.031L497.028,217.629L496.899,217.226L496.772,216.822L496.647,216.417L496.525,216.011L496.405,215.604L496.287,215.196L496.173,214.787L496.06,214.377L495.95,213.966L495.843,213.554L495.738,213.14L495.635,212.726L495.535,212.311L495.437,211.895L495.342,211.478L495.25,211.06L495.16,210.641L495.073,210.221L494.988,209.8L494.905,209.378L494.826,208.956L494.749,208.532L494.674,208.108L494.602,207.683L494.533,207.256L494.466,206.829L494.402,206.401L494.341,205.973L494.282,205.543L494.226,205.112L494.172,204.681L494.121,204.249L494.073,203.816L494.028,203.382L493.985,202.948L493.945,202.513L493.907,202.077L493.873,201.64L493.841,201.202L493.812,200.764L493.785,200.325L493.761,199.885L493.74,199.445L493.722,199.003L493.707,198.561L493.694,198.119L493.684,197.675L493.677,197.231L493.673,196.787L493.672,196.341L493.673,195.896L493.677,195.451L493.684,195.007L493.694,194.564L493.707,194.121L493.722,193.68L493.74,193.238L493.761,192.798L493.785,192.358L493.812,191.919L493.841,191.481L493.873,191.043L493.907,190.606L493.945,190.17L493.985,189.735L494.028,189.3L494.073,188.867L494.121,188.434L494.172,188.002L494.226,187.57L494.282,187.14L494.341,186.71L494.402,186.282L494.466,185.854L494.533,185.427L494.602,185L494.674,184.575L494.749,184.151L494.826,183.727L494.905,183.304L494.988,182.883L495.073,182.462L495.16,182.042L495.25,181.623L495.342,181.205L495.437,180.788L495.535,180.372L495.635,179.957L495.738,179.543L495.843,179.129L495.95,178.717L496.06,178.306L496.173,177.896L496.287,177.487L496.405,177.079L496.525,176.671L496.647,176.265L496.772,175.86L496.899,175.457L497.028,175.054L497.16,174.652L497.295,174.251L497.431,173.852L497.57,173.453L497.712,173.056L497.856,172.66L498.002,172.264L498.15,171.87L498.301,171.478L498.454,171.086L498.61,170.695L498.768,170.306L498.928,169.918L499.09,169.531L499.255,169.145L499.422,168.761L499.591,168.377L499.762,167.995L499.936,167.614L500.112,167.235L500.29,166.856L500.471,166.479L500.653,166.103L500.838,165.729L501.025,165.355L501.215,164.983L501.406,164.613L501.6,164.243L501.795,163.875L501.993,163.508L502.193,163.143L502.396,162.779L502.6,162.416L502.806,162.055L503.015,161.694L503.226,161.336L503.438,160.979L503.653,160.623L503.87,160.268L504.089,159.915L504.31,159.563L504.533,159.213L504.759,158.864L504.986,158.517L505.215,158.171L505.446,157.827L505.68,157.484L505.915,157.142L506.152,156.802L506.391,156.464L506.633,156.127L506.876,155.791L507.121,155.457L507.368,155.125L507.617,154.794L507.868,154.465L508.121,154.137L508.376,153.811L508.633,153.486L508.892,153.163L509.152,152.842L509.415,152.522L509.679,152.203L509.945,151.887L510.213,151.572L510.483,151.258L510.755,150.946L511.028,150.636L511.304,150.328L511.581,150.021L511.86,149.716L512.141,149.412L512.423,149.111L512.708,148.81L512.994,148.512L513.282,148.215L513.572,147.921L513.863,147.627L514.156,147.336L514.451,147.046L514.748,146.758L515.046,146.472L515.346,146.188L515.648,145.905L515.952,145.624L516.257,145.345L516.564,145.068L516.872,144.793L517.182,144.519L517.494,144.247L517.807,143.977L518.123,143.709L518.439,143.443L518.757,143.179L519.077,142.916L519.399,142.656L519.722,142.397L520.047,142.14L520.373,141.885L520.701,141.632L521.03,141.381L521.361,141.132L521.693,140.885L522.027,140.64L522.363,140.397L522.7,140.156L523.038,139.916L523.378,139.679L523.72,139.444L524.063,139.211L524.407,138.979L524.753,138.75L525.1,138.523L525.449,138.298L525.799,138.074L526.151,137.853L526.504,137.634L526.859,137.417L527.214,137.203L527.572,136.99L527.93,136.779L528.29,136.571L528.652,136.364L529.015,136.16L529.379,135.958L529.744,135.757L530.111,135.56L530.479,135.364L530.848,135.17L531.219,134.979L531.591,134.79L531.964,134.602L532.339,134.418L532.715,134.235L533.092,134.055L533.471,133.876L533.85,133.7L534.231,133.527L534.613,133.355L534.997,133.186L535.381,133.019L535.767,132.854L536.154,132.692L536.542,132.532L536.931,132.374L537.322,132.219L537.714,132.065L538.106,131.915L538.5,131.766L538.895,131.62L539.292,131.476L539.689,131.335L540.088,131.195L540.487,131.059L540.888,130.924L541.29,130.792L541.692,130.663L542.096,130.536L542.501,130.411L542.907,130.289L543.314,130.169L543.723,130.052L544.132,129.937L544.542,129.824L544.953,129.714L545.365,129.607L545.778,129.502L546.193,129.399L546.608,129.299L547.024,129.202L547.441,129.107L547.859,129.014L548.278,128.924L548.698,128.837L549.119,128.752L549.54,128.67L549.963,128.59L550.386,128.513L550.811,128.438L551.236,128.366L551.662,128.297L552.09,128.23L552.517,128.166L552.946,128.105L553.376,128.046L553.806,127.99L554.238,127.936L554.67,127.885L555.103,127.837L555.536,127.792L555.971,127.749L556.406,127.709L556.842,127.672L557.279,127.637L557.717,127.605L558.155,127.576L558.594,127.549L559.034,127.526L559.474,127.505L559.915,127.486L560.357,127.471L560.8,127.458L561.243,127.448L561.687,127.441L562.132,127.437L562.577,127.436L563.023,127.437ZM562.22,141.437L561.864,141.44L561.515,141.446L561.154,141.454L560.8,141.464L560.448,141.476L560.096,141.491L559.745,141.508L559.389,141.527L559.04,141.548L558.692,141.571L558.345,141.596L557.998,141.624L557.647,141.654L557.296,141.686L556.953,141.72L556.604,141.757L556.263,141.794L555.922,141.835L555.569,141.879L555.231,141.923L554.887,141.97L554.544,142.019L554.208,142.069L553.868,142.122L553.527,142.178L553.188,142.235L552.85,142.294L552.513,142.356L552.177,142.419L551.843,142.484L551.508,142.552L551.175,142.621L550.843,142.692L550.506,142.767L550.175,142.842L549.846,142.919L549.512,143L549.186,143.081L548.86,143.164L548.529,143.25L548.199,143.338L547.876,143.427L547.554,143.517L547.227,143.611L546.902,143.707L546.583,143.803L546.26,143.903L545.938,144.004L545.615,144.108L545.295,144.213L544.976,144.32L544.658,144.428L544.347,144.537L544.031,144.65L543.709,144.766L543.397,144.882L543.084,145L542.773,145.119L542.463,145.24L542.147,145.366L541.839,145.491L541.532,145.618L541.228,145.745L540.917,145.878L540.606,146.013L540.305,146.146L540.005,146.28L539.699,146.42L539.395,146.561L539.097,146.702L538.794,146.847L538.494,146.992L538.201,147.137L537.901,147.287L537.605,147.437L537.31,147.59L537.015,147.745L536.721,147.901L536.428,148.059L536.138,148.218L535.848,148.379L535.56,148.541L535.274,148.704L534.987,148.871L534.697,149.041L534.416,149.209L534.132,149.38L533.846,149.555L533.563,149.73L533.288,149.903L533.008,150.082L532.728,150.262L532.452,150.443L532.175,150.627L531.904,150.809L531.628,150.997L531.354,151.185L531.087,151.371L530.816,151.563L530.546,151.756L530.278,151.951L530.011,152.147L529.747,152.343L529.482,152.542L529.224,152.739L528.959,152.944L528.698,153.147L528.44,153.351L528.179,153.56L527.927,153.765L527.668,153.977L527.411,154.19L527.164,154.398L526.916,154.609L526.663,154.827L526.41,155.048L526.161,155.267L525.919,155.484L525.675,155.704L525.431,155.927L525.186,156.154L524.948,156.376L524.708,156.604L524.467,156.835L524.235,157.06L523.996,157.296L523.759,157.53L523.531,157.76L523.301,157.994L523.071,158.231L522.838,158.474L522.61,158.714L522.389,158.95L522.163,159.195L521.941,159.437L521.721,159.681L521.497,159.931L521.28,160.178L521.066,160.423L520.852,160.673L520.635,160.927L520.421,161.182L520.213,161.433L520.003,161.688L519.794,161.946L519.587,162.204L519.382,162.464L519.181,162.721L518.979,162.983L518.776,163.249L518.577,163.513L518.384,163.773L518.188,164.041L517.99,164.313L517.799,164.58L517.608,164.85L517.418,165.122L517.234,165.39L517.049,165.662L516.861,165.941L516.677,166.219L516.497,166.495L516.318,166.772L516.141,167.05L515.965,167.329L515.79,167.611L515.616,167.896L515.445,168.178L515.274,168.466L515.106,168.751L514.944,169.032L514.778,169.323L514.613,169.615L514.453,169.902L514.296,170.191L514.136,170.487L513.98,170.78L513.827,171.072L513.674,171.368L513.523,171.665L513.375,171.961L513.226,172.263L513.08,172.563L512.939,172.856L512.797,173.159L512.656,173.463L512.518,173.765L512.381,174.071L512.246,174.378L512.114,174.68L511.984,174.986L511.853,175.297L511.726,175.605L511.601,175.914L511.477,176.224L511.355,176.538L511.234,176.851L511.118,177.159L511.002,177.473L510.886,177.794L510.774,178.108L510.664,178.423L510.554,178.744L510.447,179.063L510.343,179.38L510.24,179.702L510.139,180.022L510.04,180.345L509.943,180.666L509.848,180.988L509.754,181.316L509.663,181.639L509.573,181.966L509.485,182.295L509.4,182.62L509.317,182.95L509.235,183.279L509.156,183.608L509.078,183.941L509.002,184.273L508.929,184.603L508.858,184.936L508.788,185.272L508.72,185.607L508.655,185.941L508.592,186.277L508.53,186.618L508.47,186.956L508.413,187.292L508.359,187.628L508.305,187.97L508.254,188.312L508.206,188.651L508.159,188.995L508.113,189.34L508.071,189.683L508.031,190.026L507.992,190.371L507.956,190.717L507.922,191.063L507.89,191.408L507.86,191.756L507.832,192.109L507.807,192.456L507.784,192.803L507.762,193.159L507.743,193.509L507.727,193.857L507.712,194.212L507.7,194.568L507.69,194.918L507.682,195.272L507.676,195.631L507.673,195.984L507.672,196.341L507.673,196.699L507.676,197.052L507.682,197.41L507.69,197.765L507.7,198.115L507.712,198.471L507.727,198.827L507.743,199.174L507.762,199.523L507.784,199.879L507.807,200.227L507.832,200.574L507.86,200.927L507.89,201.276L507.922,201.62L507.956,201.966L507.992,202.312L508.03,202.656L508.071,203L508.113,203.343L508.159,203.688L508.206,204.032L508.254,204.371L508.306,204.714L508.359,205.054L508.413,205.391L508.47,205.728L508.53,206.065L508.592,206.405L508.655,206.742L508.721,207.078L508.788,207.411L508.858,207.747L508.929,208.078L509.002,208.41L509.078,208.744L509.156,209.075L509.235,209.404L509.317,209.733L509.4,210.062L509.485,210.387L509.573,210.717L509.662,211.042L509.754,211.368L509.848,211.695L509.943,212.017L510.04,212.338L510.138,212.659L510.24,212.983L510.344,213.305L510.447,213.62L510.554,213.939L510.663,214.258L510.774,214.575L510.887,214.891L511.001,215.207L511.117,215.521L511.234,215.831L511.356,216.147L511.478,216.461L511.601,216.769L511.726,217.079L511.853,217.386L511.983,217.694L512.113,218L512.246,218.305L512.382,218.615L512.518,218.918L512.656,219.22L512.797,219.524L512.938,219.824L513.081,220.122L513.227,220.423L513.375,220.722L513.521,221.015L513.673,221.312L513.827,221.611L513.981,221.906L514.138,222.199L514.294,222.489L514.453,222.78L514.615,223.071L514.776,223.357L514.942,223.648L515.108,223.935L515.274,224.217L515.445,224.504L515.618,224.791L515.79,225.072L515.963,225.35L516.138,225.63L516.318,225.911L516.499,226.191L516.679,226.467L516.861,226.742L517.046,227.017L517.231,227.289L517.42,227.564L517.61,227.836L517.799,228.104L517.99,228.371L518.188,228.642L518.381,228.906L518.577,229.169L518.779,229.438L518.979,229.7L519.178,229.958L519.382,230.219L519.587,230.479L519.794,230.737L520.006,230.998L520.213,231.251L520.421,231.501L520.635,231.756L520.848,232.007L521.063,232.256L521.28,232.505L521.501,232.755L521.721,233.002L521.941,233.246L522.163,233.488L522.386,233.729L522.614,233.972L522.842,234.213L523.071,234.452L523.298,234.685L523.528,234.919L523.763,235.156L523.999,235.391L524.232,235.62L524.467,235.848L524.708,236.079L524.944,236.303L525.19,236.533L525.431,236.756L525.671,236.975L525.923,237.203L526.165,237.42L526.41,237.635L526.663,237.856L526.912,238.07L527.16,238.281L527.416,238.496L527.668,238.706L527.922,238.914L528.184,239.126L528.44,239.332L528.698,239.535L528.959,239.739L529.219,239.94L529.487,240.144L529.747,240.34L530.011,240.536L530.278,240.733L530.546,240.927L530.816,241.12L531.082,241.308L531.359,241.501L531.628,241.686L531.899,241.871L532.18,242.059L532.452,242.24L532.728,242.421L533.008,242.601L533.283,242.777L533.568,242.956L533.851,243.131L534.132,243.303L534.416,243.475L534.697,243.642L534.981,243.809L535.274,243.978L535.56,244.142L535.848,244.304L536.138,244.465L536.428,244.624L536.721,244.782L537.015,244.938L537.31,245.093L537.605,245.245L537.901,245.396L538.195,245.543L538.494,245.691L538.794,245.836L539.097,245.981L539.401,246.124L539.699,246.263L539.999,246.4L540.305,246.537L540.612,246.672L540.917,246.805L541.222,246.935L541.532,247.065L541.845,247.194L542.153,247.319L542.457,247.44L542.773,247.564L543.084,247.683L543.397,247.801L543.715,247.919L544.024,248.031L544.341,248.144L544.665,248.257L544.983,248.366L545.295,248.47L545.615,248.575L545.938,248.679L546.253,248.779L546.576,248.878L546.908,248.978L547.227,249.072L547.547,249.164L547.876,249.256L548.205,249.346L548.529,249.433L548.853,249.517L549.186,249.602L549.519,249.685L549.846,249.764L550.175,249.84L550.506,249.916L550.836,249.989L551.175,250.062L551.508,250.131L551.843,250.198L552.177,250.264L552.513,250.327L552.85,250.388L553.188,250.448L553.527,250.505L553.868,250.56L554.208,250.614L554.551,250.665L554.887,250.713L555.231,250.76L555.576,250.805L555.915,250.847L556.263,250.888L556.611,250.927L556.953,250.963L557.296,250.997L557.647,251.029L557.992,251.059L558.345,251.086L558.692,251.112L559.04,251.135L559.395,251.157L559.745,251.175L560.096,251.192L560.448,251.207L560.8,251.219L561.154,251.229L561.508,251.237L561.864,251.242L562.22,251.246L562.577,251.247L562.935,251.246L563.291,251.242L563.646,251.237L564.001,251.229L564.354,251.219L564.707,251.207L565.059,251.192L565.409,251.175L565.759,251.157L566.115,251.135L566.463,251.112L566.81,251.086L567.163,251.059L567.508,251.029L567.859,250.997L568.202,250.963L568.544,250.927L568.893,250.888L569.239,250.847L569.578,250.805L569.924,250.76L570.268,250.713L570.604,250.665L570.946,250.614L571.287,250.56L571.627,250.505L571.966,250.448L572.304,250.388L572.642,250.327L572.978,250.264L573.313,250.198L573.646,250.131L573.98,250.062L574.318,249.989L574.649,249.916L574.979,249.841L575.308,249.764L575.636,249.685L575.969,249.602L576.302,249.517L576.626,249.433L576.95,249.346L577.279,249.256L577.607,249.164L577.927,249.072L578.247,248.978L578.578,248.878L578.902,248.778L579.218,248.679L579.539,248.576L579.859,248.471L580.173,248.365L580.491,248.256L580.814,248.144L581.129,248.032L581.438,247.919L581.759,247.801L582.071,247.683L582.382,247.564L582.698,247.44L583.001,247.319L583.309,247.194L583.621,247.066L583.934,246.934L584.239,246.804L584.541,246.673L584.849,246.537L585.156,246.4L585.456,246.263L585.755,246.124L586.057,245.982L586.36,245.837L586.662,245.69L586.96,245.543L587.252,245.397L587.551,245.245L587.845,245.093L588.14,244.938L588.434,244.782L588.725,244.625L589.016,244.465L589.307,244.304L589.594,244.142L589.881,243.978L590.173,243.809L590.457,243.642L590.74,243.474L591.022,243.303L591.303,243.131L591.588,242.955L591.87,242.778L592.147,242.601L592.428,242.419L592.701,242.241L592.975,242.059L593.256,241.871L593.525,241.688L593.795,241.501L594.072,241.308L594.338,241.12L594.608,240.927L594.876,240.733L595.144,240.536L595.409,240.339L595.668,240.144L595.934,239.941L596.198,239.738L596.457,239.535L596.714,239.332L596.973,239.125L597.231,238.916L597.484,238.708L597.739,238.496L597.994,238.281L598.244,238.069L598.493,237.855L598.743,237.637L598.989,237.42L599.234,237.201L599.484,236.975L599.724,236.756L599.963,236.534L600.21,236.303L600.449,236.077L600.686,235.85L600.923,235.62L601.157,235.389L601.39,235.158L601.625,234.921L601.859,234.684L602.086,234.45L602.313,234.213L602.539,233.974L602.767,233.731L602.992,233.488L603.215,233.244L603.435,233L603.652,232.757L603.873,232.507L604.092,232.256L604.306,232.007L604.521,231.754L604.734,231.501L604.942,231.251L605.151,230.996L605.359,230.739L605.567,230.479L605.773,230.219L605.976,229.958L606.178,229.698L606.374,229.44L606.576,229.172L606.775,228.904L606.967,228.642L607.162,228.373L607.357,228.101L607.546,227.834L607.733,227.566L607.923,227.289L608.11,227.015L608.292,226.744L608.474,226.47L608.656,226.191L608.837,225.911L609.016,225.63L609.192,225.35L609.366,225.07L609.538,224.788L609.709,224.504L609.879,224.22L610.046,223.935L610.214,223.645L610.377,223.36L610.54,223.071L610.703,222.778L610.861,222.489L611.017,222.199L611.173,221.906L611.328,221.611L611.482,221.312L611.632,221.018L611.78,220.722L611.928,220.423L612.072,220.125L612.218,219.821L612.359,219.521L612.499,219.22L612.636,218.918L612.772,218.615L612.908,218.308L613.041,218L613.172,217.694L613.301,217.386L613.428,217.079L613.554,216.769L613.678,216.458L613.798,216.15L613.919,215.835L614.038,215.518L614.154,215.204L614.268,214.891L614.381,214.575L614.491,214.258L614.599,213.942L614.706,213.623L614.812,213.302L614.914,212.983L615.015,212.662L615.115,212.338L615.212,212.017L615.307,211.692L615.401,211.368L615.492,211.042L615.582,210.714L615.669,210.391L615.755,210.062L615.838,209.733L615.92,209.404L615.999,209.075L616.076,208.744L616.153,208.41L616.226,208.079L616.298,207.744L616.367,207.411L616.434,207.078L616.5,206.742L616.563,206.405L616.624,206.069L616.684,205.731L616.741,205.391L616.796,205.051L616.849,204.714L616.9,204.371L616.95,204.028L616.996,203.688L617.041,203.346L617.083,203.003L617.124,202.656L617.162,202.312L617.199,201.966L617.233,201.62L617.265,201.273L617.295,200.923L617.322,200.577L617.348,200.227L617.371,199.876L617.392,199.527L617.411,199.177L617.428,198.823L617.442,198.471L617.455,198.119L617.465,197.761L617.473,197.407L617.478,197.055L617.482,196.699L617.483,196.341L617.482,195.984L617.478,195.628L617.473,195.276L617.465,194.921L617.455,194.565L617.442,194.212L617.428,193.86L617.411,193.506L617.392,193.156L617.371,192.807L617.348,192.456L617.322,192.105L617.295,191.76L617.265,191.411L617.233,191.063L617.199,190.717L617.162,190.371L617.124,190.026L617.083,189.679L617.041,189.337L616.996,188.995L616.95,188.655L616.9,188.312L616.849,187.97L616.796,187.631L616.741,187.292L616.684,186.953L616.624,186.614L616.563,186.277L616.5,185.941L616.434,185.607L616.367,185.272L616.298,184.939L616.225,184.603L616.153,184.273L616.077,183.941L615.999,183.608L615.92,183.279L615.838,182.95L615.754,182.62L615.669,182.292L615.582,181.969L615.492,181.639L615.401,181.316L615.307,180.991L615.212,180.666L615.115,180.345L615.015,180.019L614.915,179.702L614.813,179.384L614.706,179.06L614.599,178.741L614.491,178.423L614.381,178.108L614.269,177.794L614.154,177.477L614.037,177.162L613.919,176.848L613.799,176.535L613.678,176.227L613.554,175.914L613.428,175.605L613.301,175.297L613.171,174.986L613.04,174.68L612.908,174.375L612.773,174.071L612.636,173.765L612.499,173.463L612.359,173.162L612.217,172.859L612.074,172.56L611.929,172.263L611.78,171.961L611.63,171.663L611.481,171.368L611.328,171.072L611.175,170.78L611.019,170.487L610.859,170.191L610.703,169.905L610.542,169.615L610.376,169.32L610.212,169.035L610.048,168.751L609.879,168.463L609.709,168.178L609.54,167.898L609.366,167.613L609.19,167.329L609.014,167.05L608.837,166.772L608.658,166.495L608.476,166.217L608.292,165.939L608.108,165.665L607.921,165.39L607.735,165.12L607.549,164.853L607.357,164.582L607.162,164.31L606.967,164.041L606.773,163.776L606.576,163.511L606.377,163.247L606.178,162.985L605.974,162.721L605.773,162.464L605.567,162.204L605.359,161.944L605.154,161.69L604.942,161.433L604.734,161.182L604.521,160.929L604.303,160.673L604.089,160.423L603.873,160.176L603.656,159.929L603.435,159.683L603.215,159.439L602.992,159.195L602.763,158.948L602.542,158.712L602.317,158.474L602.086,158.233L601.855,157.996L601.622,157.758L601.394,157.529L601.161,157.297L600.919,157.06L600.686,156.833L600.449,156.606L600.206,156.376L599.967,156.152L599.724,155.927L599.48,155.704L599.238,155.485L598.993,155.267L598.743,155.046L598.493,154.828L598.24,154.611L597.99,154.398L597.743,154.19L597.484,153.975L597.226,153.763L596.977,153.562L596.714,153.351L596.457,153.147L596.198,152.945L595.929,152.738L595.672,152.542L595.409,152.344L595.144,152.147L594.876,151.951L594.608,151.756L594.338,151.563L594.068,151.371L593.8,151.185L593.525,150.995L593.251,150.809L592.98,150.627L592.701,150.442L592.428,150.263L592.147,150.082L591.865,149.902L591.593,149.731L591.308,149.555L591.022,149.38L590.74,149.209L590.457,149.041L590.168,148.871L589.881,148.704L589.594,148.541L589.307,148.379L589.016,148.218L588.725,148.058L588.434,147.901L588.14,147.745L587.845,147.59L587.551,147.438L587.252,147.286L586.954,147.137L586.662,146.992L586.36,146.846L586.057,146.701L585.761,146.562L585.456,146.42L585.15,146.28L584.849,146.146L584.547,146.012L584.239,145.879L583.928,145.746L583.621,145.617L583.316,145.491L583.008,145.366L582.691,145.24L582.382,145.119L582.071,145L581.759,144.882L581.444,144.766L581.123,144.649L580.808,144.537L580.498,144.429L580.179,144.32L579.859,144.212L579.539,144.107L579.218,144.004L578.896,143.903L578.571,143.803L578.253,143.707L577.928,143.611L577.6,143.517L577.279,143.427L576.957,143.338L576.626,143.25L576.295,143.164L575.969,143.081L575.642,143L575.308,142.919L574.979,142.842L574.649,142.767L574.312,142.692L573.98,142.621L573.646,142.552L573.313,142.484L572.978,142.419L572.642,142.356L572.304,142.294L571.966,142.235L571.627,142.178L571.287,142.122L570.946,142.069L570.61,142.019L570.268,141.97L569.924,141.923L569.585,141.878L569.232,141.835L568.893,141.795L568.551,141.757L568.202,141.72L567.859,141.686L567.508,141.654L567.156,141.624L566.81,141.596L566.463,141.571L566.115,141.548L565.766,141.527L565.409,141.508L565.059,141.491L564.707,141.476L564.354,141.464L564.001,141.454L563.64,141.446L563.291,141.44L562.935,141.437L562.577,141.436L562.22,141.437Z" style="fill:white;"/>
                </g>
            </g>
        </g>
    </g>
</svg>
