<?xml version="1.0" encoding="UTF-8" standalone="no"?>
<!DOCTYPE svg PUBLIC "-//W3C//DTD SVG 1.1//EN" "http://www.w3.org/Graphics/SVG/1.1/DTD/svg11.dtd">
<svg width="100%" height="100%" viewBox="0 0 115 85" version="1.1" xmlns="http://www.w3.org/2000/svg" xmlns:xlink="http://www.w3.org/1999/xlink" xml:space="preserve" xmlns:serif="http://www.serif.com/" style="fill-rule:evenodd;clip-rule:evenodd;stroke-linejoin:round;stroke-miterlimit:1.41421;">
    <g transform="matrix(1,0,0,1,-1687.69,-4266.86)">
        <g transform="matrix(1.86715,0,0,1,0,3763.62)">
            <g transform="matrix(0.548641,0.0790918,-0.0420332,1.01651,269.831,-1644.18)">
                <path d="M1324.02,2042.79L1324.62,2042.76L1325.25,2042.74L1325.27,2042.74L1325.83,2042.92L1326.43,2043.11L1326.9,2043.26L1327.04,2043.36L1327.58,2043.76L1328.15,2044.18L1328.74,2044.63L1329.36,2045.09L1330,2045.58L1330.32,2045.83L1330.66,2046.08L1330.99,2046.34L1331.34,2046.61L1331.68,2046.88L1332.03,2047.15L1332.39,2047.43L1332.75,2047.71L1333.11,2048L1333.48,2048.29L1333.85,2048.58L1334.22,2048.88L1334.59,2049.18L1334.97,2049.49L1335.36,2049.8L1335.74,2050.11L1336.07,2050.39L1336.13,2050.43L1336.51,2050.76L1336.9,2051.08L1337.29,2051.41L1337.68,2051.75L1338.08,2052.09L1338.47,2052.43L1338.87,2052.78L1339.27,2053.12L1339.66,2053.47L1340.06,2053.83L1340.46,2054.18L1340.86,2054.54L1341.27,2054.9L1341.66,2055.27L1342.07,2055.63L1342.47,2056L1342.87,2056.37L1343.27,2056.74L1343.67,2057.12L1344.06,2057.5L1344.46,2057.88L1344.86,2058.26L1345.25,2058.64L1345.64,2059.03L1346.04,2059.42L1346.43,2059.8L1346.81,2060.2L1347.2,2060.59L1347.58,2060.98L1347.96,2061.38L1348.09,2061.51L1348.34,2061.78L1348.71,2062.18L1349.08,2062.57L1349.27,2062.78L1349.45,2062.98L1349.63,2063.18L1349.82,2063.39L1350,2063.59L1350.18,2063.79L1350.36,2063.99L1350.54,2064.2L1350.71,2064.4L1350.89,2064.6L1351.06,2064.81L1351.24,2065.01L1351.41,2065.22L1351.59,2065.42L1351.76,2065.63L1351.93,2065.83L1352.1,2066.04L1352.26,2066.24L1352.43,2066.45L1352.6,2066.66L1352.76,2066.86L1352.92,2067.07L1353.09,2067.28L1353.25,2067.49L1353.41,2067.69L1353.53,2067.86L1353.63,2067.57L1353.74,2067.23L1353.86,2066.89L1353.97,2066.54L1354.09,2066.2L1354.21,2065.85L1354.34,2065.5L1354.47,2065.15L1354.6,2064.79L1354.73,2064.43L1354.78,2064.29L1354.87,2064.07L1355.01,2063.71L1355.15,2063.34L1355.3,2062.98L1355.44,2062.61L1355.6,2062.23L1355.75,2061.86L1355.91,2061.48L1356.07,2061.11L1356.23,2060.73L1356.4,2060.34L1356.57,2059.96L1356.74,2059.57L1356.92,2059.19L1357.1,2058.8L1357.28,2058.4L1357.47,2058.01L1357.66,2057.62L1357.85,2057.22L1358.05,2056.82L1358.25,2056.42L1358.45,2056.02L1358.66,2055.62L1358.87,2055.21L1359.08,2054.8L1359.3,2054.4L1359.52,2053.99L1359.75,2053.58L1359.97,2053.16L1360.21,2052.75L1360.44,2052.34L1360.68,2051.92L1360.93,2051.5L1361.17,2051.09L1361.43,2050.67L1361.68,2050.25L1361.94,2049.82L1362.21,2049.4L1362.47,2048.98L1362.75,2048.55L1363.02,2048.13L1363.3,2047.7L1363.59,2047.28L1363.87,2046.85L1364.16,2046.42L1364.31,2046.2L1364.46,2045.99L1364.61,2045.78L1364.76,2045.56L1364.91,2045.34L1365.07,2045.13L1365.22,2044.91L1365.38,2044.7L1365.53,2044.48L1365.69,2044.27L1365.85,2044.05L1366.01,2043.83L1366.17,2043.62L1366.33,2043.4L1366.49,2043.18L1366.66,2042.97L1366.82,2042.75L1366.99,2042.53L1367.16,2042.32L1367.33,2042.1L1367.5,2041.88L1367.67,2041.66L1367.84,2041.45L1368.01,2041.23L1368.18,2041.01L1368.36,2040.79L1368.54,2040.58L1368.71,2040.36L1368.89,2040.14L1369.07,2039.92L1369.26,2039.7L1369.44,2039.49L1369.62,2039.27L1369.81,2039.05L1369.99,2038.83L1370.18,2038.61L1370.37,2038.4L1370.56,2038.18L1370.75,2037.96L1370.94,2037.74L1371.13,2037.52L1371.33,2037.3L1371.52,2037.09L1371.72,2036.87L1371.92,2036.65L1372.12,2036.43L1372.32,2036.21L1372.52,2036L1372.72,2035.78L1372.92,2035.56L1373.13,2035.34L1373.34,2035.12L1373.54,2034.9L1373.75,2034.69L1373.96,2034.47L1374.17,2034.25L1374.39,2034.03L1374.6,2033.82L1374.82,2033.6L1375.03,2033.38L1375.25,2033.16L1375.47,2032.95L1375.69,2032.73L1375.91,2032.51L1376.13,2032.3L1376.36,2032.08L1376.58,2031.86L1376.81,2031.64L1377.04,2031.43L1377.27,2031.21L1377.5,2031L1377.73,2030.78L1377.75,2030.76L1377.96,2030.56L1378.2,2030.35L1378.43,2030.13L1378.67,2029.91L1378.91,2029.7L1379.15,2029.48L1379.39,2029.27L1379.63,2029.05L1379.88,2028.83L1380.12,2028.62L1380.37,2028.4L1380.61,2028.19L1380.86,2027.97L1381.11,2027.76L1381.37,2027.55L1381.62,2027.33L1381.87,2027.12L1382.13,2026.9L1382.39,2026.69L1382.64,2026.48L1382.9,2026.26L1383.17,2026.05L1383.43,2025.84L1383.69,2025.62L1383.96,2025.41L1384.23,2025.2L1384.5,2024.99L1384.76,2024.78L1385.04,2024.57L1385.31,2024.35L1385.58,2024.14L1385.86,2023.93L1386.13,2023.72L1386.41,2023.51L1386.69,2023.3L1386.98,2023.09L1387.26,2022.88L1387.54,2022.67L1387.83,2022.47L1388.11,2022.26L1388.4,2022.05L1388.69,2021.84L1388.98,2021.63L1389.28,2021.43L1389.57,2021.22L1389.87,2021.01L1390.16,2020.81L1390.46,2020.6L1390.62,2020.49L1390.76,2020.39L1391.07,2020.19L1391.37,2019.98L1391.67,2019.78L1391.98,2019.57L1392.28,2019.36L1392.59,2019.16L1392.9,2018.95L1393.21,2018.75L1393.53,2018.54L1393.84,2018.34L1394.15,2018.14L1394.47,2017.93L1394.79,2017.73L1395.11,2017.53L1395.43,2017.33L1395.76,2017.12L1396.08,2016.92L1396.41,2016.72L1396.74,2016.52L1397.07,2016.32L1397.4,2016.12L1397.73,2015.92L1398.07,2015.72L1398.4,2015.52L1398.74,2015.33L1399.08,2015.13L1399.42,2014.93L1399.76,2014.73L1400.11,2014.54L1400.45,2014.34L1400.8,2014.15L1400.81,2014.14L1401.14,2013.93L1401.47,2013.71L1401.81,2013.49L1402.15,2013.27L1402.49,2013.05L1402.83,2012.83L1403.18,2012.61L1403.5,2012.41L1403.52,2012.39L1403.87,2012.16L1404.21,2011.93L1404.56,2011.7L1404.9,2011.48L1405.25,2011.25L1405.6,2011.02L1405.95,2010.79L1406.31,2010.56L1406.67,2010.34L1407.02,2010.11L1407.38,2009.88L1407.56,2009.77L1407.75,2009.65L1408.11,2009.42L1408.47,2009.19L1408.84,2008.97L1409.2,2008.74L1409.57,2008.51L1409.94,2008.28L1410.32,2008.05L1410.69,2007.82L1411.07,2007.59L1411.45,2007.37L1411.83,2007.14L1412.21,2006.91L1412.59,2006.68L1412.98,2006.46L1412.99,2006.45L1415.36,2006.25L1417.21,2008.01L1417.22,2008.02L1417.39,2010.58L1415.73,2012.3L1415.72,2012.3L1415.31,2012.45L1414.91,2012.61L1414.51,2012.76L1414.12,2012.91L1413.72,2013.06L1413.33,2013.21L1412.93,2013.37L1412.54,2013.52L1412.15,2013.68L1411.76,2013.83L1411.38,2013.99L1410.99,2014.15L1410.61,2014.3L1410.23,2014.46L1410.03,2014.54L1409.85,2014.62L1409.47,2014.79L1409.1,2014.95L1408.72,2015.11L1408.35,2015.28L1407.98,2015.44L1407.62,2015.61L1407.25,2015.78L1406.88,2015.94L1406.52,2016.11L1406.16,2016.28L1405.8,2016.45L1405.77,2016.46L1405.44,2016.63L1405.1,2016.81L1404.75,2016.99L1404.4,2017.17L1404.05,2017.36L1403.71,2017.54L1403.37,2017.72L1403.03,2017.9L1403.02,2017.91L1402.7,2018.12L1402.38,2018.32L1402.06,2018.53L1401.74,2018.74L1401.42,2018.95L1401.1,2019.16L1400.79,2019.38L1400.47,2019.59L1400.16,2019.8L1399.85,2020.01L1399.55,2020.22L1399.24,2020.43L1398.93,2020.64L1398.63,2020.86L1398.33,2021.07L1398.03,2021.28L1397.73,2021.49L1397.43,2021.71L1397.14,2021.92L1396.85,2022.13L1396.56,2022.35L1396.27,2022.56L1395.98,2022.77L1395.69,2022.99L1395.4,2023.2L1395.12,2023.42L1394.84,2023.63L1394.56,2023.85L1394.28,2024.06L1394,2024.28L1393.73,2024.49L1393.6,2024.59L1393.45,2024.71L1393.18,2024.92L1392.91,2025.14L1392.64,2025.36L1392.37,2025.58L1392.11,2025.79L1391.84,2026.01L1391.58,2026.23L1391.32,2026.45L1391.06,2026.66L1390.8,2026.88L1390.55,2027.1L1390.29,2027.32L1390.04,2027.54L1389.79,2027.75L1389.54,2027.97L1389.29,2028.19L1389.04,2028.41L1388.79,2028.63L1388.55,2028.85L1388.31,2029.07L1388.06,2029.28L1387.82,2029.5L1387.59,2029.72L1387.35,2029.94L1387.11,2030.16L1386.88,2030.38L1386.64,2030.6L1386.41,2030.82L1386.18,2031.04L1385.95,2031.25L1385.73,2031.47L1385.5,2031.69L1385.28,2031.91L1385.05,2032.13L1384.83,2032.35L1384.61,2032.57L1384.39,2032.79L1384.17,2033.01L1383.96,2033.22L1383.74,2033.44L1383.53,2033.66L1383.32,2033.88L1383.11,2034.1L1382.9,2034.32L1382.69,2034.54L1382.48,2034.76L1382.28,2034.97L1382.09,2035.18L1382.08,2035.19L1381.87,2035.41L1381.67,2035.63L1381.47,2035.85L1381.27,2036.07L1381.08,2036.29L1380.88,2036.51L1380.69,2036.73L1380.49,2036.94L1380.3,2037.16L1380.11,2037.38L1379.92,2037.6L1379.73,2037.82L1379.55,2038.03L1379.36,2038.25L1379.18,2038.47L1379,2038.69L1378.81,2038.9L1378.63,2039.12L1378.45,2039.34L1378.28,2039.56L1378.1,2039.77L1377.92,2039.99L1377.75,2040.21L1377.58,2040.42L1377.41,2040.64L1377.24,2040.86L1377.07,2041.07L1376.9,2041.29L1376.73,2041.5L1376.57,2041.72L1376.4,2041.94L1376.24,2042.15L1376.08,2042.37L1375.91,2042.58L1375.75,2042.8L1375.6,2043.01L1375.44,2043.23L1375.28,2043.44L1375.13,2043.65L1374.97,2043.87L1374.82,2044.08L1374.67,2044.29L1374.52,2044.51L1374.37,2044.72L1374.22,2044.93L1374.07,2045.14L1373.92,2045.36L1373.78,2045.57L1373.64,2045.78L1373.49,2045.99L1373.35,2046.2L1373.21,2046.41L1373.07,2046.63L1372.93,2046.84L1372.8,2047.05L1372.66,2047.26L1372.52,2047.47L1372.39,2047.68L1372.26,2047.89L1372.12,2048.1L1371.99,2048.3L1371.86,2048.51L1371.73,2048.72L1371.61,2048.93L1371.48,2049.14L1371.35,2049.34L1371.23,2049.55L1371.1,2049.76L1370.98,2049.96L1370.86,2050.17L1370.74,2050.38L1370.62,2050.58L1370.38,2050.99L1370.15,2051.4L1369.92,2051.81L1369.69,2052.21L1369.47,2052.62L1369.26,2053.02L1369.04,2053.42L1368.83,2053.82L1368.63,2054.22L1368.42,2054.62L1368.23,2055.02L1368.03,2055.41L1367.84,2055.8L1367.65,2056.2L1367.46,2056.59L1367.28,2056.97L1367.1,2057.36L1366.93,2057.74L1366.76,2058.13L1366.59,2058.51L1366.42,2058.89L1366.26,2059.26L1366.11,2059.64L1365.95,2060.01L1365.8,2060.39L1365.65,2060.76L1365.5,2061.12L1365.36,2061.49L1365.22,2061.85L1365.08,2062.22L1364.95,2062.58L1364.82,2062.93L1364.69,2063.29L1364.56,2063.64L1364.44,2063.99L1364.32,2064.34L1364.2,2064.69L1364.09,2065.03L1363.97,2065.38L1363.87,2065.72L1363.76,2066.05L1363.65,2066.39L1363.55,2066.72L1363.45,2067.05L1363.39,2067.26L1363.35,2067.38L1363.26,2067.71L1363.17,2068.03L1363.08,2068.35L1362.99,2068.67L1362.9,2068.99L1362.82,2069.3L1362.74,2069.61L1362.66,2069.92L1362.58,2070.22L1362.5,2070.52L1362.43,2070.82L1362.36,2071.12L1362.29,2071.41L1362.22,2071.7L1362.16,2071.99L1362.1,2072.28L1362.03,2072.56L1361.97,2072.84L1361.92,2073.12L1361.86,2073.39L1361.81,2073.66L1361.75,2073.93L1361.7,2074.2L1361.65,2074.46L1361.6,2074.72L1361.56,2074.97L1361.51,2075.22L1361.47,2075.47L1361.43,2075.72L1361.39,2075.96L1361.35,2076.2L1361.31,2076.44L1361.28,2076.67L1361.24,2076.9L1361.21,2077.13L1361.17,2077.35L1361.14,2077.57L1361.11,2077.78L1361.06,2078.21L1361,2078.62L1360.95,2079.02L1360.91,2079.4L1360.87,2079.77L1360.83,2080.12L1360.79,2080.46L1360.76,2080.79L1360.73,2081.1L1360.7,2081.4L1360.65,2081.97L1360.6,2082.47L1360.57,2082.72L1360.55,2082.96L1360.52,2083.19L1360.49,2083.43L1360.45,2083.66L1360.43,2083.8L1360.4,2083.94L1360.37,2084.09L1360.33,2084.26L1360.28,2084.45L1360.21,2084.68L1360.12,2084.95L1359.98,2085.28L1359.77,2085.7L1359.48,2086.16L1359.18,2086.54L1358.85,2086.9L1358.42,2087.29L1357.86,2087.68L1357.16,2088.03L1356.32,2088.3L1355.41,2088.42L1354.49,2088.37L1353.65,2088.18L1352.94,2087.9L1352.36,2087.58L1351.91,2087.25L1351.56,2086.93L1351.29,2086.65L1351.07,2086.39L1350.87,2086.12L1350.65,2085.79L1350.48,2085.48L1350.36,2085.23L1350.26,2085.01L1350.19,2084.83L1350.12,2084.66L1350.07,2084.51L1350.02,2084.37L1349.98,2084.24L1349.93,2084.11L1349.89,2083.98L1349.85,2083.85L1349.78,2083.61L1349.71,2083.35L1349.63,2083.07L1349.55,2082.79L1349.47,2082.49L1349.39,2082.19L1349.35,2082.08L1349.32,2081.99L1349.29,2081.9L1349.26,2081.81L1349.23,2081.72L1349.19,2081.62L1349.15,2081.52L1349.11,2081.41L1349.06,2081.31L1349.02,2081.2L1348.97,2081.1L1348.92,2080.99L1348.86,2080.87L1348.81,2080.76L1348.75,2080.64L1348.69,2080.53L1348.63,2080.41L1348.57,2080.28L1348.5,2080.16L1348.43,2080.04L1348.36,2079.91L1348.28,2079.78L1348.21,2079.66L1348.13,2079.52L1348.05,2079.39L1347.97,2079.26L1347.88,2079.12L1347.79,2078.99L1347.7,2078.85L1347.61,2078.71L1347.52,2078.57L1347.42,2078.43L1347.33,2078.29L1347.23,2078.15L1347.12,2078.01L1347.02,2077.86L1346.91,2077.72L1346.8,2077.57L1346.69,2077.42L1346.58,2077.28L1346.47,2077.13L1346.35,2076.98L1346.23,2076.83L1346.11,2076.68L1345.99,2076.52L1345.87,2076.37L1345.74,2076.22L1345.61,2076.06L1345.48,2075.91L1345.35,2075.75L1345.22,2075.6L1345.08,2075.44L1344.95,2075.28L1344.81,2075.13L1344.67,2074.97L1344.53,2074.81L1344.38,2074.65L1344.24,2074.49L1344.09,2074.33L1343.95,2074.17L1343.8,2074.01L1343.65,2073.85L1343.5,2073.69L1343.34,2073.53L1343.19,2073.37L1343.03,2073.21L1342.87,2073.05L1342.71,2072.88L1342.55,2072.72L1342.39,2072.56L1342.23,2072.4L1342.07,2072.23L1341.9,2072.07L1341.73,2071.91L1341.57,2071.74L1341.4,2071.58L1341.23,2071.42L1341.06,2071.25L1340.88,2071.09L1340.71,2070.93L1340.36,2070.6L1340.01,2070.27L1339.77,2070.05L1339.65,2069.94L1339.29,2069.61L1338.93,2069.28L1338.57,2068.95L1338.2,2068.63L1337.83,2068.3L1337.46,2067.97L1337.08,2067.65L1336.7,2067.32L1336.32,2067L1335.94,2066.67L1335.56,2066.35L1335.17,2066.03L1334.79,2065.71L1334.4,2065.4L1334.02,2065.08L1333.63,2064.76L1333.24,2064.45L1332.85,2064.14L1332.46,2063.83L1332.07,2063.53L1331.68,2063.22L1331.29,2062.92L1330.9,2062.62L1330.52,2062.32L1330.13,2062.03L1329.74,2061.73L1329.36,2061.44L1328.98,2061.16L1328.6,2060.87L1328.22,2060.59L1328.16,2060.55L1327.84,2060.31L1327.47,2060.03L1327.1,2059.75L1326.74,2059.48L1326.37,2059.21L1326.01,2058.94L1325.65,2058.68L1325.3,2058.42L1324.95,2058.16L1324.6,2057.91L1324.25,2057.66L1323.91,2057.42L1323.58,2057.18L1323.25,2056.94L1322.92,2056.71L1322.6,2056.48L1322.28,2056.26L1321.66,2055.82L1321.06,2055.41L1320.49,2055.01L1319.94,2054.64L1319.41,2054.28L1319.28,2054.19L1319.01,2053.81L1318.65,2053.33L1318.32,2052.88L1318.31,2052.87L1318.14,2052.29L1317.97,2051.73L1317.82,2051.22L1317.78,2051.08L1317.73,2050.7L1317.67,2050.2L1317.58,2049.43L1317.52,2048.96L1317.51,2048.83L1317.51,2048.79L1321.03,2043.39L1321.07,2043.38L1321.2,2043.34L1321.68,2043.23L1322.45,2043.04L1322.94,2042.92L1323.33,2042.83L1323.48,2042.82L1324.02,2042.79ZM1350.32,2081.6L1350.33,2081.55L1350.3,2081.68L1350.31,2081.63L1350.29,2081.73L1350.29,2081.72L1350.3,2081.7L1350.29,2081.77L1350.29,2081.75L1350.31,2081.68L1350.33,2081.59L1350.35,2081.47L1350.32,2081.6ZM1350.35,2081.48L1350.36,2081.46L1350.36,2081.46L1350.35,2081.48Z" style="fill:white;"/>
            </g>
        </g>
    </g>
</svg>
