<?xml version="1.0" encoding="UTF-8" standalone="no"?>
<!DOCTYPE svg PUBLIC "-//W3C//DTD SVG 1.1//EN" "http://www.w3.org/Graphics/SVG/1.1/DTD/svg11.dtd">
<svg width="100%" height="100%" viewBox="0 0 50 76" version="1.1" xmlns="http://www.w3.org/2000/svg" xmlns:xlink="http://www.w3.org/1999/xlink" xml:space="preserve" xmlns:serif="http://www.serif.com/" style="fill-rule:evenodd;clip-rule:evenodd;stroke-linejoin:round;stroke-miterlimit:1.41421;">
    <g transform="matrix(1,0,0,1,-4743.27,-3988.23)">
        <g transform="matrix(1.86715,0,0,1,4304.01,3763.62)">
            <g transform="matrix(0.508007,0.0496152,-0.0291687,1.0412,-1457.89,-460.052)">
                <g transform="matrix(0.459676,0,0,0.459676,2667.66,188.164)">
                    <path d="M1624.9,691.51L1509.36,672.705L1524.4,722.763C1524.4,722.763 1578.68,727.852 1607.75,730.577C1612.28,731.002 1616.8,729.639 1620.16,726.831C1623.52,724.024 1625.4,720.041 1625.33,715.888C1625.13,704.56 1624.9,691.51 1624.9,691.51Z" style="fill:white;"/>
                </g>
                <g transform="matrix(0.38046,0,0,0.38046,2796.44,268.825)">
                    <path d="M1624.9,691.51L1509.36,679.857L1518.38,713.886C1518.38,713.886 1570.87,722.876 1602.4,728.277C1608.1,729.251 1613.96,727.844 1618.39,724.445C1622.82,721.045 1625.33,716.013 1625.24,710.74C1625.06,700.949 1624.9,691.51 1624.9,691.51Z" style="fill:white;"/>
                </g>
                <g transform="matrix(0.319118,0,0,0.319118,2896.15,333.626)">
                    <path d="M1624.9,691.51L1506.41,675.624L1517.18,713.713C1517.18,713.713 1565.83,722.03 1597.95,727.522C1604.73,728.682 1611.73,727.003 1617,722.95C1622.28,718.897 1625.27,712.899 1625.16,706.613C1625.02,698.457 1624.9,691.51 1624.9,691.51Z" style="fill:white;"/>
                </g>
            </g>
        </g>
    </g>
</svg>
