<?xml version="1.0" encoding="UTF-8" standalone="no"?>
<!DOCTYPE svg PUBLIC "-//W3C//DTD SVG 1.1//EN" "http://www.w3.org/Graphics/SVG/1.1/DTD/svg11.dtd">
<svg width="100%" height="100%" viewBox="0 0 123 171" version="1.1" xmlns="http://www.w3.org/2000/svg" xmlns:xlink="http://www.w3.org/1999/xlink" xml:space="preserve" xmlns:serif="http://www.serif.com/" style="fill-rule:evenodd;clip-rule:evenodd;stroke-linejoin:round;stroke-miterlimit:1.41421;">
    <g transform="matrix(1,0,0,1,-249.941,-4404.34)">
        <g transform="matrix(1.86715,0,0,1,0,3763.62)">
            <g transform="matrix(0.38273,0,0,0.714616,-180.224,594.121)">
                <path d="M903.026,76.22C902.878,76.086 902.75,75.926 902.648,75.742L899.582,70.14C899.495,69.981 899.434,69.815 899.398,69.646C899.245,69.375 899.165,69.091 899.165,68.8C899.165,66.819 902.888,65.21 907.473,65.21C911.199,65.21 914.356,66.272 915.408,67.733C915.655,67.98 915.871,68.266 916.047,68.587L974.951,176.161L978.713,171.301C979.975,168.847 982.437,167.18 985.263,167.18C989.376,167.18 992.714,170.708 992.714,175.052C992.714,176.195 992.483,177.282 992.068,178.262C991.94,178.708 991.726,179.137 991.426,179.526L897.796,300.476C897.703,300.596 897.605,300.708 897.502,300.813C896.136,302.628 894.029,303.792 891.667,303.792C887.555,303.792 884.216,300.264 884.216,295.92C884.216,293.842 884.98,291.951 886.227,290.543L824.204,177.272C824.178,177.232 824.153,177.19 824.13,177.148L821.063,171.547C820.976,171.388 820.915,171.221 820.879,171.053C820.727,170.781 820.646,170.498 820.646,170.206C820.646,168.225 824.369,166.617 828.955,166.617C831.192,166.617 833.224,166.999 834.718,167.621C835.712,167.864 836.606,168.507 837.135,169.474L896.376,277.664L905.945,265.303L843.63,151.499C843.571,151.391 843.518,151.281 843.47,151.171L840.702,146.115C840.615,145.956 840.554,145.789 840.518,145.621C840.366,145.349 840.285,145.066 840.285,144.774C840.285,142.793 844.008,141.185 848.594,141.185C852.543,141.185 855.852,142.377 856.695,143.974C856.754,144.063 856.811,144.156 856.863,144.252L916.019,252.288L925.588,239.927L863.358,126.277C863.256,126.091 863.172,125.9 863.104,125.706L860.197,120.396C860.11,120.237 860.049,120.07 860.012,119.902C859.86,119.63 859.779,119.347 859.779,119.055C859.779,117.074 863.502,115.465 868.088,115.465C872.342,115.465 875.854,116.85 876.339,118.632C876.43,118.758 876.515,118.891 876.591,119.031L935.663,226.912L945.232,214.551L883.197,101.257C883.081,101.139 882.979,101.004 882.896,100.852L879.829,95.251C879.742,95.092 879.681,94.925 879.645,94.757C879.493,94.485 879.412,94.202 879.412,93.91C879.412,91.929 883.135,90.321 887.721,90.321C891.659,90.321 894.961,91.507 895.815,93.097C896.006,93.309 896.176,93.547 896.319,93.809L955.307,201.537L964.876,189.176L903.026,76.22Z" style="fill:white;"/>
            </g>
        </g>
    </g>
</svg>
