<?xml version="1.0" encoding="UTF-8" standalone="no"?>
<!DOCTYPE svg PUBLIC "-//W3C//DTD SVG 1.1//EN" "http://www.w3.org/Graphics/SVG/1.1/DTD/svg11.dtd">
<svg width="100%" height="100%" viewBox="0 0 1486 10" version="1.1" xmlns="http://www.w3.org/2000/svg" xmlns:xlink="http://www.w3.org/1999/xlink" xml:space="preserve" xmlns:serif="http://www.serif.com/" style="fill-rule:evenodd;clip-rule:evenodd;stroke-linejoin:round;stroke-miterlimit:1.41421;">
    <g transform="matrix(1,0,0,1,-2392.54,-3821.43)">
        <g transform="matrix(1.86715,0,0,1,2127.06,3763.62)">
            <g transform="matrix(1.41745,0,0,1.34391,-1848.88,-662.948)">
                <path d="M1703.79,537.975L1724.01,538.035L1768.11,538.249L1814.39,538.551L1859.58,538.898L1933.63,539.547L1963.17,539.833L1964.12,539.842L1964.12,540.158L1963.17,540.167L1933.63,540.453L1859.58,541.102L1814.39,541.449L1768.11,541.751L1724.01,541.965L1703.79,542.025L1685.35,542.046L1667.58,542.032L1649.23,541.991L1611.29,541.84L1572.63,541.615L1534.33,541.338L1463.18,540.718L1407.5,540.167L1406.55,540.158L1406.55,539.842L1407.5,539.833L1463.18,539.282L1534.33,538.662L1572.63,538.385L1611.29,538.16L1649.23,538.009L1667.58,537.968L1685.35,537.954L1703.79,537.975Z" style="fill:white;"/>
            </g>
        </g>
    </g>
</svg>
